<?xml version="1.0" encoding="UTF-8"?>
<svg version="1.1" xmlns="http://www.w3.org/2000/svg" width="146" height="146">
<path d="M0 0 C14.81288005 14.48532251 22.11273516 30.99592453 22.65454102 51.80126953 C22.37324942 63.4809856 20.29153239 74.20207453 14.27954102 84.30126953 C9.48937143 82.06664948 5.29208987 79.81224978 1.27954102 76.30126953 C1.92284509 72.84969573 2.77573653 69.53901457 3.77954102 66.17626953 C7.74606991 51.56068522 6.3808738 37.78115314 -0.72045898 24.30126953 C-7.99435499 12.21591002 -18.43601973 3.23968075 -32.11108398 -0.66748047 C-47.1838481 -4.19098377 -61.44184046 -3.04370935 -75.15795898 4.48876953 C-87.42707213 12.33568201 -96.31628063 24.00372046 -99.72045898 38.30126953 C-101.5924657 48.0040649 -101.20540149 57.06130014 -98.47436523 66.54736328 C-97.67995051 69.44924091 -97.17141736 72.32844685 -96.72045898 75.30126953 C-98.20545898 75.79626953 -98.20545898 75.79626953 -99.72045898 76.30126953 C-99.72045898 76.96126953 -99.72045898 77.62126953 -99.72045898 78.30126953 C-100.98737406 78.97535261 -102.25916647 79.6402745 -103.53295898 80.30126953 C-104.2406543 80.67251953 -104.94834961 81.04376953 -105.67749023 81.42626953 C-107.72045898 82.30126953 -107.72045898 82.30126953 -110.72045898 82.30126953 C-111.53944165 80.09515388 -112.35073441 77.88668613 -113.15795898 75.67626953 C-113.61041992 74.44650391 -114.06288086 73.21673828 -114.52905273 71.94970703 C-119.96214809 55.31196584 -117.58990393 35.68857523 -110.09545898 20.17626953 C-100.88465368 2.17954308 -86.35785648 -8.95841999 -67.63452148 -15.83154297 C-43.90797387 -22.83393381 -17.94245563 -16.95660642 0 0 Z " fill="#447490" transform="translate(120.720458984375,20.69873046875)"/>
<path d="M0 0 C12.32610322 -0.21540763 12.32610322 -0.21540763 15 1 C19.65689739 9.64852372 20.73426319 20.82984257 18 30.3125 C17.67 31.199375 17.34 32.08625 17 33 C19.31 33 21.62 33 24 33 C23.67 36.63 23.34 40.26 23 44 C20.525 44.12375 20.525 44.12375 18 44.25 C9.10614837 45.10517804 4.20794117 48.16140835 -1.5546875 54.90234375 C-6.0315783 61.39988526 -5.68219506 68.37495905 -5 76 C-2.98765101 83.65174617 2.61687915 88.00992891 9.1875 91.875 C16.46067261 94.02118208 23.37603298 94.12472736 30.375 91 C37.23671467 87.11206216 40.82324693 81.05945126 44 74 C47.3 74.33 50.6 74.66 54 75 C53.83789482 83.59157444 49.88672387 90.04021742 43.921875 96.1171875 C35.44102837 103.22523521 26.40594466 105.74308352 15.4296875 105.3828125 C4.95393314 104.21353696 -3.64465801 99.42019857 -10.25 91.25 C-16.85117441 81.65485031 -18.15720674 72.41005847 -17 61 C-14.84310639 52.43845293 -10.34238612 45.8544551 -3.5625 40.25 C2.29844197 35.00806126 6.27285417 30.14761651 7.39453125 22.20703125 C7.72200771 13.41368182 5.0775026 7.00345187 0 0 Z " fill="#1B5578" transform="translate(59,20)"/>
<path d="M0 0 C5.95813323 3.54298171 10.27851957 8.47433855 12.48046875 15.08984375 C13.35156852 22.43341736 13.07206203 29.07512507 8.48046875 35.08984375 C4.20921264 39.62425781 -0.02887104 42.67577923 -6.3515625 43.42578125 C-14.00809099 43.52612894 -19.61589178 42.84535404 -25.26953125 37.40625 C-31.02267506 30.97545223 -32.03346468 26.24686988 -31.8984375 17.578125 C-31.20261584 11.17226163 -28.16943617 7.37566947 -23.45703125 3.21484375 C-16.53697048 -1.79115766 -8.23755364 -2.97573643 0 0 Z " fill="#F5C35A" transform="translate(87.51953125,67.91015625)"/>
<path d="M0 0 C-0.66 0.33 -1.32 0.66 -2 1 C-2.46523063 2.89533342 -2.46523063 2.89533342 -2.625 5.0625 C-2.810625 7.0115625 -2.810625 7.0115625 -3 9 C-4.74627478 6.38058783 -5.38722388 4.96175123 -6 2 C-7.32 1.67 -8.64 1.34 -10 1 C-10.33 2.32 -10.66 3.64 -11 5 C-12.32 5 -13.64 5 -15 5 C-15 4.34 -15 3.68 -15 3 C-14.01 3 -13.02 3 -12 3 C-12 2.01 -12 1.02 -12 0 C-13.32 0 -14.64 0 -16 0 C-16.33 1.65 -16.66 3.3 -17 5 C-17.33 5 -17.66 5 -18 5 C-18 3.35 -18 1.7 -18 0 C-20.97 0 -23.94 0 -27 0 C-27.33 1.32 -27.66 2.64 -28 4 C-29.32 3.01 -30.64 2.02 -32 1 C-32 1.66 -32 2.32 -32 3 C-31.34 3.66 -30.68 4.32 -30 5 C-31.32 5.33 -32.64 5.66 -34 6 C-34 5.01 -34 4.02 -34 3 C-34.99 2.67 -35.98 2.34 -37 2 C-37.495 1.505 -37.495 1.505 -38 1 C-38.33 2.98 -38.66 4.96 -39 7 C-40.32 6.67 -41.64 6.34 -43 6 C-42.01 5.01 -41.02 4.02 -40 3 C-41.32 3 -42.64 3 -44 3 C-43.505 5.97 -43.505 5.97 -43 9 C-43.66 9 -44.32 9 -45 9 C-45 8.34 -45 7.68 -45 7 C-46.32 6.67 -47.64 6.34 -49 6 C-49.33 6.66 -49.66 7.32 -50 8 C-48.68 8.33 -47.36 8.66 -46 9 C-46.1796875 11.28515625 -46.1796875 11.28515625 -47 14 C-49.2578125 15.80859375 -49.2578125 15.80859375 -52.125 17.4375 C-65.09910217 25.24878115 -72.69641781 35.85711417 -78 50 C-78.99 49.67 -79.98 49.34 -81 49 C-81 49.66 -81 50.32 -81 51 C-81.99 51 -82.98 51 -84 51 C-84.33 50.34 -84.66 49.68 -85 49 C-85 49.99 -85 50.98 -85 52 C-84.01 52.66 -83.02 53.32 -82 54 C-84.475 54.495 -84.475 54.495 -87 55 C-84.69 55.33 -82.38 55.66 -80 56 C-80 57.98 -80 59.96 -80 62 C-81.98 62 -83.96 62 -86 62 C-86.33 60.68 -86.66 59.36 -87 58 C-87 59.65 -87 61.3 -87 63 C-85.02 63 -83.04 63 -81 63 C-81 63.66 -81 64.32 -81 65 C-83.97 65.495 -83.97 65.495 -87 66 C-87.33 66.99 -87.66 67.98 -88 69 C-85.69 69.33 -83.38 69.66 -81 70 C-81.99 70.495 -81.99 70.495 -83 71 C-83 72.32 -83 73.64 -83 75 C-83.99 75 -84.98 75 -86 75 C-84.68 75.33 -83.36 75.66 -82 76 C-81.67 77.65 -81.34 79.3 -81 81 C-81.66 81 -82.32 81 -83 81 C-83 80.01 -83 79.02 -83 78 C-83.99 78.495 -83.99 78.495 -85 79 C-85 79.99 -85 80.98 -85 82 C-81.535 81.505 -81.535 81.505 -78 81 C-77.49440092 82.43554025 -76.9957251 83.8735202 -76.5 85.3125 C-76.2215625 86.11300781 -75.943125 86.91351563 -75.65625 87.73828125 C-75 90 -75 90 -75 93 C-76.26691507 93.67408308 -77.53870749 94.33900497 -78.8125 95 C-79.52019531 95.37125 -80.22789063 95.7425 -80.95703125 96.125 C-83 97 -83 97 -86 97 C-86.81898266 94.79388434 -87.63027543 92.5854166 -88.4375 90.375 C-88.88996094 89.14523438 -89.34242187 87.91546875 -89.80859375 86.6484375 C-95.24168911 70.01069631 -92.86944495 50.3873057 -85.375 34.875 C-76.1641947 16.87827355 -61.6373975 5.74031047 -42.9140625 -1.1328125 C-28.87919684 -5.27490752 -13.75357685 -5.03875281 0 0 Z " fill="#20597B" transform="translate(96,6)"/>
<path d="M0 0 C3.95380298 2.08734355 3.95380298 2.08734355 8.12890625 3.62109375 C9.11890625 2.96109375 10.10890625 2.30109375 11.12890625 1.62109375 C12.11890625 2.61109375 12.11890625 2.61109375 13.12890625 3.62109375 C13.78890625 2.63109375 14.44890625 1.64109375 15.12890625 0.62109375 C14.79890625 2.27109375 14.46890625 3.92109375 14.12890625 5.62109375 C12.47890625 5.62109375 10.82890625 5.62109375 9.12890625 5.62109375 C10.39734375 7.04421875 10.39734375 7.04421875 11.69140625 8.49609375 C16.44503736 14.04011483 21.01740969 19.98628492 24.12890625 26.62109375 C24.78890625 25.30109375 25.44890625 23.98109375 26.12890625 22.62109375 C27.77890625 22.62109375 29.42890625 22.62109375 31.12890625 22.62109375 C30.79890625 24.27109375 30.46890625 25.92109375 30.12890625 27.62109375 C31.11890625 27.95109375 32.10890625 28.28109375 33.12890625 28.62109375 C33.31640625 30.99609375 33.31640625 30.99609375 33.12890625 33.62109375 C30.12890625 35.62109375 30.12890625 35.62109375 27.12890625 35.62109375 C27.62390625 38.09609375 27.62390625 38.09609375 28.12890625 40.62109375 C28.45890625 40.29109375 28.78890625 39.96109375 29.12890625 39.62109375 C31.79949476 39.47994214 34.45322863 39.57862268 37.12890625 39.62109375 C36.13890625 40.11609375 36.13890625 40.11609375 35.12890625 40.62109375 C35.12890625 41.28109375 35.12890625 41.94109375 35.12890625 42.62109375 C36.11890625 42.29109375 37.10890625 41.96109375 38.12890625 41.62109375 C37.79890625 42.61109375 37.46890625 43.60109375 37.12890625 44.62109375 C36.13890625 44.95109375 35.14890625 45.28109375 34.12890625 45.62109375 C34.78890625 45.95109375 35.44890625 46.28109375 36.12890625 46.62109375 C36.12890625 47.28109375 36.12890625 47.94109375 36.12890625 48.62109375 C34.47890625 48.62109375 32.82890625 48.62109375 31.12890625 48.62109375 C31.12890625 49.28109375 31.12890625 49.94109375 31.12890625 50.62109375 C32.77890625 50.62109375 34.42890625 50.62109375 36.12890625 50.62109375 C36.32185033 55.44469564 35.88638239 59.11756113 34.12890625 63.62109375 C33.13890625 63.62109375 32.14890625 63.62109375 31.12890625 63.62109375 C31.45890625 64.61109375 31.78890625 65.60109375 32.12890625 66.62109375 C32.45890625 67.61109375 32.78890625 68.60109375 33.12890625 69.62109375 C32.13890625 70.11609375 32.13890625 70.11609375 31.12890625 70.62109375 C31.45890625 71.28109375 31.78890625 71.94109375 32.12890625 72.62109375 C30.47890625 72.29109375 28.82890625 71.96109375 27.12890625 71.62109375 C27.12890625 72.28109375 27.12890625 72.94109375 27.12890625 73.62109375 C29.10890625 74.61109375 29.10890625 74.61109375 31.12890625 75.62109375 C25.25390625 74.74609375 25.25390625 74.74609375 24.12890625 73.62109375 C23.79890625 74.28109375 23.46890625 74.94109375 23.12890625 75.62109375 C21.14890625 75.12609375 21.14890625 75.12609375 19.12890625 74.62109375 C19.77221033 71.16951995 20.62510176 67.85883879 21.62890625 64.49609375 C25.59543515 49.88050944 24.23023904 36.10097736 17.12890625 22.62109375 C9.85501025 10.53573424 -0.5866545 1.55950496 -14.26171875 -2.34765625 C-29.33448287 -5.87115955 -43.59247522 -4.72388513 -57.30859375 2.80859375 C-69.5777069 10.65550623 -78.4669154 22.32354468 -81.87109375 36.62109375 C-83.74310046 46.32388912 -83.35603626 55.38112436 -80.625 64.8671875 C-79.83058527 67.76906513 -79.32205212 70.64827107 -78.87109375 73.62109375 C-80.19109375 73.62109375 -81.51109375 73.62109375 -82.87109375 73.62109375 C-84.36930434 70.25011992 -84.87109375 68.41667256 -84.87109375 64.62109375 C-86.35609375 65.61109375 -86.35609375 65.61109375 -87.87109375 66.62109375 C-90.55859375 66.24609375 -90.55859375 66.24609375 -92.87109375 65.62109375 C-92.54109375 64.30109375 -92.21109375 62.98109375 -91.87109375 61.62109375 C-91.21109375 61.62109375 -90.55109375 61.62109375 -89.87109375 61.62109375 C-89.87109375 62.61109375 -89.87109375 63.60109375 -89.87109375 64.62109375 C-89.21109375 64.62109375 -88.55109375 64.62109375 -87.87109375 64.62109375 C-88.36609375 62.14609375 -88.36609375 62.14609375 -88.87109375 59.62109375 C-90.52109375 59.29109375 -92.17109375 58.96109375 -93.87109375 58.62109375 C-93.54109375 57.63109375 -93.21109375 56.64109375 -92.87109375 55.62109375 C-91.88109375 56.61109375 -90.89109375 57.60109375 -89.87109375 58.62109375 C-89.87109375 57.30109375 -89.87109375 55.98109375 -89.87109375 54.62109375 C-92.18109375 54.29109375 -94.49109375 53.96109375 -96.87109375 53.62109375 C-95.88109375 53.12609375 -95.88109375 53.12609375 -94.87109375 52.62109375 C-94.21896083 50.5964612 -94.21896083 50.5964612 -93.87109375 48.62109375 C-91.89109375 48.62109375 -89.91109375 48.62109375 -87.87109375 48.62109375 C-87.87109375 47.96109375 -87.87109375 47.30109375 -87.87109375 46.62109375 C-89.85109375 46.62109375 -91.83109375 46.62109375 -93.87109375 46.62109375 C-93.87109375 44.97109375 -93.87109375 43.32109375 -93.87109375 41.62109375 C-92.22109375 41.62109375 -90.57109375 41.62109375 -88.87109375 41.62109375 C-90.85109375 42.11609375 -90.85109375 42.11609375 -92.87109375 42.62109375 C-92.87109375 43.61109375 -92.87109375 44.60109375 -92.87109375 45.62109375 C-90.89109375 45.62109375 -88.91109375 45.62109375 -86.87109375 45.62109375 C-86.87109375 43.64109375 -86.87109375 41.66109375 -86.87109375 39.62109375 C-87.98484375 39.66234375 -89.09859375 39.70359375 -90.24609375 39.74609375 C-93.87109375 39.62109375 -93.87109375 39.62109375 -95.87109375 37.62109375 C-93.89109375 37.12609375 -93.89109375 37.12609375 -91.87109375 36.62109375 C-92.20109375 35.30109375 -92.53109375 33.98109375 -92.87109375 32.62109375 C-91.88109375 32.12609375 -91.88109375 32.12609375 -90.87109375 31.62109375 C-90.87109375 32.61109375 -90.87109375 33.60109375 -90.87109375 34.62109375 C-89.88109375 34.62109375 -88.89109375 34.62109375 -87.87109375 34.62109375 C-87.87109375 33.96109375 -87.87109375 33.30109375 -87.87109375 32.62109375 C-86.88109375 32.62109375 -85.89109375 32.62109375 -84.87109375 32.62109375 C-84.54238281 31.69490234 -84.54238281 31.69490234 -84.20703125 30.75 C-81.82993834 24.40142258 -78.90299016 19.06160207 -74.87109375 13.62109375 C-74.24654297 12.72970703 -74.24654297 12.72970703 -73.609375 11.8203125 C-65.29941591 0.96496053 -51.96452717 -5.34719578 -38.84375 -7.98828125 C-24.35777733 -9.89182562 -12.65599438 -6.69515061 0 0 Z " fill="#CBA96C" transform="translate(102.87109375,22.37890625)"/>
<path d="M0 0 C2.1875 0 2.1875 0 5 1 C11.28397723 8.9202483 11.60474205 16.19309968 11 26 C10.27888268 28.97251266 9.35135668 31.24098011 8 34 C10.64 34.33 13.28 34.66 16 35 C16 36.65 16 38.3 16 40 C15.16597656 40.14695313 14.33195312 40.29390625 13.47265625 40.4453125 C5.11771094 42.11055933 -2.04914809 44.13666632 -7.58984375 50.95703125 C-12.65774952 58.6396826 -13.88018289 65.882208 -13 75 C-11.25244073 83.22901327 -7.40458413 89.54789249 -1 95 C7.17050574 100.19828219 15.36408924 102.08852394 25 101 C33.59036609 98.51810095 41.12700775 94.92326399 45.71875 87.0546875 C47.73721188 83.10345316 49.59613416 79.21159751 51 75 C51.99 75 52.98 75 54 75 C53.83789482 83.59157444 49.88672387 90.04021742 43.921875 96.1171875 C35.44102837 103.22523521 26.40594466 105.74308352 15.4296875 105.3828125 C4.95393314 104.21353696 -3.64465801 99.42019857 -10.25 91.25 C-16.85117441 81.65485031 -18.15720674 72.41005847 -17 61 C-14.84310639 52.43845293 -10.34238612 45.8544551 -3.5625 40.25 C2.29844197 35.00806126 6.27285417 30.14761651 7.39453125 22.20703125 C7.72200771 13.41368182 5.0775026 7.00345187 0 0 Z " fill="#4E696E" transform="translate(59,20)"/>
<path d="M0 0 C5.95813323 3.54298171 10.27851957 8.47433855 12.48046875 15.08984375 C13.35156852 22.43341736 13.07206203 29.07512507 8.48046875 35.08984375 C4.20921264 39.62425781 -0.02887104 42.67577923 -6.3515625 43.42578125 C-14.00809099 43.52612894 -19.61589178 42.84535404 -25.26953125 37.40625 C-31.02267506 30.97545223 -32.03346468 26.24686988 -31.8984375 17.578125 C-31.20261584 11.17226163 -28.16943617 7.37566947 -23.45703125 3.21484375 C-16.53697048 -1.79115766 -8.23755364 -2.97573643 0 0 Z M-23.51953125 9.08984375 C-27.65290031 14.67133051 -27.27718305 20.40567122 -26.51953125 27.08984375 C-24.38479867 31.59650143 -21.60130996 34.26399695 -17.51953125 37.08984375 C-12.12033268 38.88957661 -6.5839586 38.79097002 -1.20703125 36.96484375 C2.56999172 34.32971144 5.3967161 31.25734905 7.48046875 27.08984375 C8.41649111 18.1212853 8.41649111 18.1212853 5.29296875 9.96484375 C2.29941419 6.56652689 -0.57665024 4.36739818 -5.14453125 3.71484375 C-7.97027577 4.16101394 -8.71555818 4.94225676 -10.51953125 7.08984375 C-11.50953125 7.58484375 -11.50953125 7.58484375 -12.51953125 8.08984375 C-12.18953125 6.76984375 -11.85953125 5.44984375 -11.51953125 4.08984375 C-16.63193531 3.31523707 -19.95416883 5.66810967 -23.51953125 9.08984375 Z " fill="#DED3BD" transform="translate(87.51953125,67.91015625)"/>
<path d="M0 0 C0.33 0.66 0.66 1.32 1 2 C2.97888961 2.72693904 4.97954558 3.39816251 7 4 C6.67 4.66 6.34 5.32 6 6 C4.68 6 3.36 6 2 6 C2.66 6.33 3.32 6.66 4 7 C4.33 7.99 4.66 8.98 5 10 C5.99 10 6.98 10 8 10 C7.67 10.99 7.34 11.98 7 13 C6.34 12.67 5.68 12.34 5 12 C5 12.66 5 13.32 5 14 C4.01 14 3.02 14 2 14 C1.67 13.34 1.34 12.68 1 12 C1 12.99 1 13.98 1 15 C1.99 15.66 2.98 16.32 4 17 C2.35 17.33 0.7 17.66 -1 18 C1.31 18.33 3.62 18.66 6 19 C6 20.98 6 22.96 6 25 C4.02 25 2.04 25 0 25 C-0.33 23.68 -0.66 22.36 -1 21 C-1 22.65 -1 24.3 -1 26 C0.98 26 2.96 26 5 26 C5 26.66 5 27.32 5 28 C3.02 28.33 1.04 28.66 -1 29 C-1.33 29.99 -1.66 30.98 -2 32 C0.31 32.33 2.62 32.66 5 33 C4.01 33.495 4.01 33.495 3 34 C3 35.32 3 36.64 3 38 C2.01 38 1.02 38 0 38 C1.32 38.33 2.64 38.66 4 39 C4.33 40.65 4.66 42.3 5 44 C4.34 44 3.68 44 3 44 C3 43.01 3 42.02 3 41 C2.01 41.495 2.01 41.495 1 42 C1 42.99 1 43.98 1 45 C4.465 44.505 4.465 44.505 8 44 C8.50559908 45.43554025 9.0042749 46.8735202 9.5 48.3125 C9.7784375 49.11300781 10.056875 49.91351563 10.34375 50.73828125 C11 53 11 53 11 56 C9.73308493 56.67408308 8.46129251 57.33900497 7.1875 58 C6.47980469 58.37125 5.77210937 58.7425 5.04296875 59.125 C3 60 3 60 0 60 C-0.81898266 57.79388434 -1.63027543 55.5854166 -2.4375 53.375 C-2.88996094 52.14523438 -3.34242188 50.91546875 -3.80859375 49.6484375 C-8.46869452 35.37783383 -7.89889907 15.79939142 -1.3125 2.1875 C-0.879375 1.465625 -0.44625 0.74375 0 0 Z " fill="#2D6383" transform="translate(10,43)"/>
<path d="M0 0 C-0.33 1.32 -0.66 2.64 -1 4 C0.68496298 3.03114628 2.35178756 2.03013277 4 1 C4 0.67 4 0.34 4 0 C9.28458761 0.41447746 12.22237449 1.22237449 16 5 C20.07665818 10.65599307 19.76322535 16.26665636 19 23 C16.86526742 27.50665768 14.08177871 30.1741532 10 33 C6.98509443 34.00496852 4.95818308 34.10335303 1.8125 34.0625 C0.91144531 34.05347656 0.01039062 34.04445312 -0.91796875 34.03515625 C-1.60503906 34.02355469 -2.29210937 34.01195312 -3 34 C-1.65598004 30.8994391 -0.28814601 29.18341417 2.375 27.125 C5.72616912 24.38693459 7.71089026 21.64561922 10 18 C10.66 17.67 11.32 17.34 12 17 C11.67 18.32 11.34 19.64 11 21 C12.98 21.66 14.96 22.32 17 23 C17.33 19.7 17.66 16.4 18 13 C17.01 12.67 16.02 12.34 15 12 C15 11.01 15 10.02 15 9 C14.67 8.34 14.34 7.68 14 7 C13.34 8.32 12.68 9.64 12 11 C11.67 8.36 11.34 5.72 11 3 C4.86070431 3.36835774 2.18329647 4.71710123 -2 9 C-3.21552355 11.00891317 -3.21552355 11.00891317 -3 13 C-1.64555699 14.77190909 -1.64555699 14.77190909 0 16 C-0.78375 15.814375 -1.5675 15.62875 -2.375 15.4375 C-4.97089775 14.74037734 -4.97089775 14.74037734 -7 16 C-7.33 15.01 -7.66 14.02 -8 13 C-10.50447516 11.78130071 -10.50447516 11.78130071 -13 11 C-13.33 13.97 -13.66 16.94 -14 20 C-12.02 20 -10.04 20 -8 20 C-7.896875 21.258125 -7.79375 22.51625 -7.6875 23.8125 C-7.30390844 27.13957417 -7.30390844 27.13957417 -5.4375 29.875 C-4.963125 30.24625 -4.48875 30.6175 -4 31 C-4 31.66 -4 32.32 -4 33 C-9.02898754 31.56314642 -10.95677502 29.05763331 -14 25 C-16.22311395 20.5537721 -15.51185594 14.82524866 -15 10 C-12.36549134 3.53944142 -7.12121415 -0.61038978 0 0 Z " fill="#417391" transform="translate(76,72)"/>
<path d="M0 0 C9.00325755 11.05528206 9.86999538 27.39272858 9 41 C7.84113041 50.13515166 5.72449334 58.06359814 1 66 C-0.29640378 65.40606618 -1.58698839 64.79942011 -2.875 64.1875 C-3.59429687 63.85105469 -4.31359375 63.51460937 -5.0546875 63.16796875 C-7 62 -7 62 -9 59 C-8.01 58.01 -7.02 57.02 -6 56 C-6 56.66 -6 57.32 -6 58 C-4.68 58 -3.36 58 -2 58 C-2.66 57.67 -3.32 57.34 -4 57 C-4 56.34 -4 55.68 -4 55 C-2.68 55 -1.36 55 0 55 C-0.33 54.34 -0.66 53.68 -1 53 C-0.01 53 0.98 53 2 53 C1.34 52.34 0.68 51.68 0 51 C-0.66 50.34 -1.32 49.68 -2 49 C-1.34 49 -0.68 49 0 49 C0 48.34 0 47.68 0 47 C1.485 46.505 1.485 46.505 3 46 C3 44.35 3 42.7 3 41 C3.66 41 4.32 41 5 41 C5 39.68 5 38.36 5 37 C4.34 36.67 3.68 36.34 3 36 C3.66 36 4.32 36 5 36 C5 35.34 5 34.68 5 34 C3.35 34 1.7 34 0 34 C0 33.34 0 32.68 0 32 C1.65 32 3.3 32 5 32 C5 31.34 5 30.68 5 30 C3.35 30 1.7 30 0 30 C2 28.66666667 4 27.33333333 6 26 C5.34 26 4.68 26 4 26 C4 25.34 4 24.68 4 24 C2.02 23.67 0.04 23.34 -2 23 C-2.33 24.32 -2.66 25.64 -3 27 C-3.33 24.36 -3.66 21.72 -4 19 C-2.7934375 18.6596875 -2.7934375 18.6596875 -1.5625 18.3125 C-0.716875 17.879375 0.12875 17.44625 1 17 C1.89386164 14.45224694 1.89386164 14.45224694 2 12 C0.68 11.67 -0.64 11.34 -2 11 C-1.34 9.35 -0.68 7.7 0 6 C-2.44480079 6.18828772 -2.44480079 6.18828772 -5 7 C-6.36020151 8.96758273 -6.36020151 8.96758273 -7 11 C-8.77706209 8.33440687 -9.87548273 5.9719385 -11 3 C-9.68 3 -8.36 3 -7 3 C-7 3.66 -7 4.32 -7 5 C-6.401875 4.67 -5.80375 4.34 -5.1875 4 C-3 3 -3 3 0 3 C0 2.01 0 1.02 0 0 Z " fill="#205A7D" transform="translate(134,39)"/>
<path d="M0 0 C-0.66 0.33 -1.32 0.66 -2 1 C-2.46523063 2.89533342 -2.46523063 2.89533342 -2.625 5.0625 C-2.810625 7.0115625 -2.810625 7.0115625 -3 9 C-4.74627478 6.38058783 -5.38722388 4.96175123 -6 2 C-7.32 1.67 -8.64 1.34 -10 1 C-10.33 2.32 -10.66 3.64 -11 5 C-12.32 5 -13.64 5 -15 5 C-15 4.34 -15 3.68 -15 3 C-14.01 3 -13.02 3 -12 3 C-12 2.01 -12 1.02 -12 0 C-13.32 0 -14.64 0 -16 0 C-16.33 1.65 -16.66 3.3 -17 5 C-17.33 5 -17.66 5 -18 5 C-18 3.35 -18 1.7 -18 0 C-20.97 0 -23.94 0 -27 0 C-27.33 1.32 -27.66 2.64 -28 4 C-29.32 3.01 -30.64 2.02 -32 1 C-32 1.66 -32 2.32 -32 3 C-31.34 3.66 -30.68 4.32 -30 5 C-31.32 5.33 -32.64 5.66 -34 6 C-34 5.01 -34 4.02 -34 3 C-34.99 2.67 -35.98 2.34 -37 2 C-37.33 1.67 -37.66 1.34 -38 1 C-38.33 2.98 -38.66 4.96 -39 7 C-40.32 6.67 -41.64 6.34 -43 6 C-42.01 5.01 -41.02 4.02 -40 3 C-41.32 3 -42.64 3 -44 3 C-43.67 4.98 -43.34 6.96 -43 9 C-43.66 9 -44.32 9 -45 9 C-45 8.34 -45 7.68 -45 7 C-46.32 6.67 -47.64 6.34 -49 6 C-49.33 6.66 -49.66 7.32 -50 8 C-48.68 8.33 -47.36 8.66 -46 9 C-47.07218201 10.01194706 -48.15826378 11.00918057 -49.25 12 C-49.85328125 12.556875 -50.4565625 13.11375 -51.078125 13.6875 C-53 15 -53 15 -57 15 C-57.33 15.99 -57.66 16.98 -58 18 C-58.66 18 -59.32 18 -60 18 C-60.66 14.7 -61.32 11.4 -62 8 C-42.01943836 -2.55434937 -22.24446313 -8.14946921 0 0 Z " fill="#275F81" transform="translate(96,6)"/>
<path d="M0 0 C12.16510461 3.4908561 21.97780677 14.65388379 28.96875 24.82421875 C30.17926389 27.37821965 30.19567256 29.2067742 30 32 C27.69 32.66 25.38 33.32 23 34 C23 33.34 23 32.68 23 32 C22.24847656 32.08636719 21.49695313 32.17273437 20.72265625 32.26171875 C18 32 18 32 16.12109375 30.20703125 C15.56550781 29.41683594 15.00992188 28.62664063 14.4375 27.8125 C13.84710938 26.99523437 13.25671875 26.17796875 12.6484375 25.3359375 C12.10445312 24.56507812 11.56046875 23.79421875 11 23 C9.67082708 21.33001351 8.33985898 19.66142513 7 18 C10 17 10 17 11 17 C10.67 16.01 10.34 15.02 10 14 C9.34 14 8.68 14 8 14 C7.87625 13.195625 7.7525 12.39125 7.625 11.5625 C7.41875 10.716875 7.2125 9.87125 7 9 C6.34 8.67 5.68 8.34 5 8 C3.375 6.5625 3.375 6.5625 2 5 C2 4.34 2 3.68 2 3 C1.01 2.67 0.02 2.34 -1 2 C-0.67 1.34 -0.34 0.68 0 0 Z " fill="#265E80" transform="translate(104,10)"/>
<path d="M0 0 C2.64 0 5.28 0 8 0 C7.01 0.495 7.01 0.495 6 1 C6 1.66 6 2.32 6 3 C6.99 2.67 7.98 2.34 9 2 C8.67 2.99 8.34 3.98 8 5 C7.01 5.33 6.02 5.66 5 6 C5.66 6.33 6.32 6.66 7 7 C7 7.66 7 8.32 7 9 C5.35 9 3.7 9 2 9 C2 9.66 2 10.32 2 11 C3.65 11 5.3 11 7 11 C7.19294408 15.82360189 6.75747614 19.49646738 5 24 C4.01 24 3.02 24 2 24 C2.33 24.99 2.66 25.98 3 27 C3.33 27.99 3.66 28.98 4 30 C3.34 30.33 2.68 30.66 2 31 C2.33 31.66 2.66 32.32 3 33 C1.35 32.67 -0.3 32.34 -2 32 C-2 32.66 -2 33.32 -2 34 C-0.68 34.66 0.64 35.32 2 36 C0.02 35.67 -1.96 35.34 -4 35 C-5.32212186 31.31568707 -4.63634984 28.84565398 -3.625 25.125 C-2.11681357 19.05797732 -1.50818515 13.23121698 -1.2109375 6.99609375 C-1.0358163 4.50872407 -0.70935941 2.37809836 0 0 Z " fill="#698FA5" transform="translate(132,62)"/>
<path d="M0 0 C0.33 0.66 0.66 1.32 1 2 C2.97888961 2.72693904 4.97954558 3.39816251 7 4 C6.67 4.66 6.34 5.32 6 6 C4.68 6 3.36 6 2 6 C2.66 6.33 3.32 6.66 4 7 C4.33 7.99 4.66 8.98 5 10 C5.99 10 6.98 10 8 10 C7.67 10.99 7.34 11.98 7 13 C6.34 12.67 5.68 12.34 5 12 C5 12.66 5 13.32 5 14 C4.01 14 3.02 14 2 14 C1.67 13.34 1.34 12.68 1 12 C1 12.99 1 13.98 1 15 C1.99 15.66 2.98 16.32 4 17 C2.35 17.33 0.7 17.66 -1 18 C1.31 18.33 3.62 18.66 6 19 C6 20.98 6 22.96 6 25 C4.02 25 2.04 25 0 25 C-0.33 23.68 -0.66 22.36 -1 21 C-1 22.65 -1 24.3 -1 26 C0.98 26 2.96 26 5 26 C5 26.66 5 27.32 5 28 C3.02 28.33 1.04 28.66 -1 29 C-1.495 31.475 -1.495 31.475 -2 34 C-2.99 34 -3.98 34 -5 34 C-8.94164091 26.11671817 -5.43032001 13.94780328 -3 6 C-2.12915126 3.84249186 -1.19876784 1.99794639 0 0 Z " fill="#225B7E" transform="translate(10,43)"/>
<path d="M0 0 C2.94956528 1.36944102 5.52468811 2.87830409 8 5 C8 5.66 8 6.32 8 7 C8.5775 7.103125 9.155 7.20625 9.75 7.3125 C12.32049158 8.09792798 13.93657284 9.30504197 16 11 C15.67 12.65 15.34 14.3 15 16 C14.01 16 13.02 16 12 16 C12.66 16.99 13.32 17.98 14 19 C14.39832031 18.566875 14.79664062 18.13375 15.20703125 17.6875 C15.73683594 17.130625 16.26664063 16.57375 16.8125 16 C17.33457031 15.443125 17.85664062 14.88625 18.39453125 14.3125 C20 13 20 13 23 13 C23.33 17.29 23.66 21.58 24 26 C23.01 26 22.02 26 21 26 C21 24.68 21 23.36 21 22 C17.95613276 21.91773332 15.92824652 22.02391783 13 23 C12.01 22.67 11.02 22.34 10 22 C8.8125 18.4375 8.8125 18.4375 8 15 C7.01 15.99 6.02 16.98 5 18 C4.01 17.67 3.02 17.34 2 17 C3.19899698 13.9168649 4.47700477 10.93720508 6 8 C5.01 8 4.02 8 3 8 C0.79857668 10.4390706 0.79857668 10.4390706 -1 13 C-1.99 12.67 -2.98 12.34 -4 12 C-2.94496547 9.72761793 -1.93701762 7.92535422 -0.3125 6 C1.2625698 4.07838307 1.2625698 4.07838307 0.6875 1.75 C0.3471875 0.88375 0.3471875 0.88375 0 0 Z M9 10 C9.66 11.32 10.32 12.64 11 14 C11.66 14 12.32 14 13 14 C12.34 12.68 11.68 11.36 11 10 C10.34 10 9.68 10 9 10 Z M20 17 C19.67 17.66 19.34 18.32 19 19 C19.66 19 20.32 19 21 19 C20.67 18.34 20.34 17.68 20 17 Z " fill="#195579" transform="translate(34,114)"/>
<path d="M0 0 C2.20666741 2.18058387 4.12469009 4.5318086 6 7 C5.67 7.66 5.34 8.32 5 9 C5.66 9.33 6.32 9.66 7 10 C7.125 16.625 7.125 16.625 6 20 C4.02 19.34 2.04 18.68 0 18 C-0.08226668 14.95613276 0.02391783 12.92824652 1 10 C-1.31 9.67 -3.62 9.34 -6 9 C-6.268125 9.78375 -6.53625 10.5675 -6.8125 11.375 C-8 14 -8 14 -11 16 C-11.103125 15.38125 -11.20625 14.7625 -11.3125 14.125 C-11.87525373 11.63473516 -11.87525373 11.63473516 -15 10 C-14.1875 7.5625 -14.1875 7.5625 -13 5 C-12.01 4.67 -11.02 4.34 -10 4 C-9.67 3.01 -9.34 2.02 -9 1 C-5.80228282 -1.2840837 -3.62373013 -1.46674791 0 0 Z " fill="#477794" transform="translate(87,75)"/>
<path d="M0 0 C0.99 0 1.98 0 3 0 C2.83789482 8.59157444 -1.11327613 15.04021742 -7.078125 21.1171875 C-16.66214828 29.1498401 -26.72877999 30.95355977 -39 30 C-41.41015625 29.48046875 -41.41015625 29.48046875 -43 29 C-43 28.34 -43 27.68 -43 27 C-37.39 27.33 -31.78 27.66 -26 28 C-26 27.34 -26 26.68 -26 26 C-25.21496094 25.70867187 -24.42992188 25.41734375 -23.62109375 25.1171875 C-12.28387332 20.69358493 -7.37802142 16.79017923 -2.1640625 5.70703125 C-0.94710109 2.98173604 -0.94710109 2.98173604 0 0 Z " fill="#586D6C" transform="translate(110,95)"/>
<path d="M0 0 C0.721875 0.165 1.44375 0.33 2.1875 0.5 C2.5175 1.49 2.8475 2.48 3.1875 3.5 C4.8375 3.83 6.4875 4.16 8.1875 4.5 C6.49999154 9.00002257 4.36385816 13.22379627 2.1875 17.5 C1.51990628 18.8328694 0.85297805 20.16607302 0.1875 21.5 C-1.7925 20.51 -3.7725 19.52 -5.8125 18.5 C-5.8125 17.51 -5.8125 16.52 -5.8125 15.5 C-4.4925 15.17 -3.1725 14.84 -1.8125 14.5 C-2.616875 14.066875 -3.42125 13.63375 -4.25 13.1875 C-6.8125 11.5 -6.8125 11.5 -7.8125 8.5 C-6.18877735 4.4561574 -4.45047381 0.79119534 0 0 Z " fill="#4D7A95" transform="translate(17.8125,33.5)"/>
<path d="M0 0 C0.33 1.32 0.66 2.64 1 4 C2.32 4.33 3.64 4.66 5 5 C5 6.32 5 7.64 5 9 C5.9590625 9.1546875 5.9590625 9.1546875 6.9375 9.3125 C7.9584375 9.6528125 7.9584375 9.6528125 9 10 C9.33 10.99 9.66 11.98 10 13 C10.99 13 11.98 13 13 13 C13.33 14.32 13.66 15.64 14 17 C14.66 17 15.32 17 16 17 C16 17.66 16 18.32 16 19 C13.69 19.66 11.38 20.32 9 21 C9 20.34 9 19.68 9 19 C8.24847656 19.08636719 7.49695313 19.17273438 6.72265625 19.26171875 C4 19 4 19 2.12109375 17.20703125 C1.56550781 16.41683594 1.00992188 15.62664063 0.4375 14.8125 C-0.15289062 13.99523438 -0.74328125 13.17796875 -1.3515625 12.3359375 C-2.16753906 11.17964844 -2.16753906 11.17964844 -3 10 C-4.32917292 8.33001351 -5.66014102 6.66142513 -7 5 C-4 4 -4 4 -1 4 C-0.67 2.68 -0.34 1.36 0 0 Z " fill="#2E6280" transform="translate(118,23)"/>
<path d="M0 0 C0.33 0.66 0.66 1.32 1 2 C0.67 2.66 0.34 3.32 0 4 C0.61875 4.2475 1.2375 4.495 1.875 4.75 C4.37480203 6.22047178 4.83316022 7.41403076 6 10 C4.90081184 10.98475214 3.7954398 11.96260473 2.6875 12.9375 C2.07261719 13.48277344 1.45773438 14.02804688 0.82421875 14.58984375 C-2.40849017 17.08879005 -5.25300157 17.11359738 -9.1875 17.0625 C-10.53908203 17.04896484 -10.53908203 17.04896484 -11.91796875 17.03515625 C-12.60503906 17.02355469 -13.29210937 17.01195313 -14 17 C-12.65598004 13.8994391 -11.28814601 12.18341417 -8.625 10.125 C-5.27820177 7.38480895 -3.23026311 4.68851206 -1 1 C-0.67 0.67 -0.34 0.34 0 0 Z " fill="#386C8B" transform="translate(87,89)"/>
<path d="M0 0 C2.078125 0.37890625 2.078125 0.37890625 4 1 C4.66 0.67 5.32 0.34 6 0 C6 0.99 6 1.98 6 3 C7.32 3.33 8.64 3.66 10 4 C9.01 5.485 9.01 5.485 8 7 C7.34 7 6.68 7 6 7 C5.34 8.32 4.68 9.64 4 11 C3.34 11 2.68 11 2 11 C1.67 11.66 1.34 12.32 1 13 C-4.875 9.375 -4.875 9.375 -6 6 C-5.09972412 4.96468274 -4.17906965 3.94705835 -3.25 2.9375 C-2.48429687 2.08478516 -2.48429687 2.08478516 -1.703125 1.21484375 C-1.14109375 0.81394531 -0.5790625 0.41304687 0 0 Z " fill="#5B869F" transform="translate(24,23)"/>
<path d="M0 0 C1.65 0 3.3 0 5 0 C3.68 0.33 2.36 0.66 1 1 C1 1.99 1 2.98 1 4 C2.98 4 4.96 4 7 4 C7.22537111 7.12401779 7.42738648 10.24911333 7.625 13.375 C7.68945312 14.26445313 7.75390625 15.15390625 7.8203125 16.0703125 C7.871875 16.92109375 7.9234375 17.771875 7.9765625 18.6484375 C8.02893066 19.43395996 8.08129883 20.21948242 8.13525391 21.02880859 C8 23 8 23 6 25 C3.375 24.625 3.375 24.625 1 24 C1.33 22.68 1.66 21.36 2 20 C2.66 20 3.32 20 4 20 C4 20.99 4 21.98 4 23 C4.66 23 5.32 23 6 23 C5.67 21.35 5.34 19.7 5 18 C3.35 17.67 1.7 17.34 0 17 C0.33 16.01 0.66 15.02 1 14 C1.99 14.99 2.98 15.98 4 17 C4 15.68 4 14.36 4 13 C1.69 12.67 -0.62 12.34 -3 12 C-2.34 11.67 -1.68 11.34 -1 11 C-0.34786708 8.97536745 -0.34786708 8.97536745 0 7 C1.98 7 3.96 7 6 7 C6 6.34 6 5.68 6 5 C4.02 5 2.04 5 0 5 C0 3.35 0 1.7 0 0 Z " fill="#99B0BB" transform="translate(9,64)"/>
<path d="M0 0 C1.65 0.33 3.3 0.66 5 1 C4.67 2.65 4.34 4.3 4 6 C3.01 6 2.02 6 1 6 C1.33 6.99 1.66 7.98 2 9 C2.33 9.99 2.66 10.98 3 12 C2.01 12.495 2.01 12.495 1 13 C1.33 13.66 1.66 14.32 2 15 C0.35 14.67 -1.3 14.34 -3 14 C-3 14.66 -3 15.32 -3 16 C-1.68 16.66 -0.36 17.32 1 18 C-0.98 17.67 -2.96 17.34 -5 17 C-6.62145758 12.17945045 -4.91428122 8.51637777 -3 4 C-1.3125 1.4375 -1.3125 1.4375 0 0 Z " fill="#7D9EB0" transform="translate(133,80)"/>
<path d="M0 0 C3.40320742 1.01176437 4.75725331 1.64843582 6.8125 4.625 C7.204375 5.40875 7.59625 6.1925 8 7 C7.67 7.33 7.34 7.66 7 8 C7.66 8.33 8.32 8.66 9 9 C9.125 15.625 9.125 15.625 8 19 C6.02 18.34 4.04 17.68 2 17 C1.91773332 13.95613276 2.02391783 11.92824652 3 9 C0.525 8.01 0.525 8.01 -2 7 C-1.125 2.25 -1.125 2.25 0 0 Z " fill="#E9EFF1" transform="translate(85,76)"/>
<path d="M0 0 C1 1 1 1 1.0625 3.5625 C1.041875 4.366875 1.02125 5.17125 1 6 C2.65 6.33 4.3 6.66 6 7 C5.67 7.66 5.34 8.32 5 9 C2.03 8.67 -0.94 8.34 -4 8 C-3.34 9.65 -2.68 11.3 -2 13 C-2.99 13.33 -3.98 13.66 -5 14 C-6.65 10.37 -8.3 6.74 -10 3 C-4.21875 -0.46875 -4.21875 -0.46875 0 0 Z M-4 2 C-4.66 3.32 -5.32 4.64 -6 6 C-4.68 5.34 -3.36 4.68 -2 4 C-2 3.34 -2 2.68 -2 2 C-2.66 2 -3.32 2 -4 2 Z " fill="#195579" transform="translate(107,122)"/>
<path d="M0 0 C2.33294775 -0.04241723 4.66702567 -0.04092937 7 0 C8.56422584 1.56422584 8.42160514 3.27926252 8.6875 5.4375 C8.79449219 6.24058594 8.90148437 7.04367188 9.01171875 7.87109375 C9 10 9 10 7 12 C4.8359375 12.1953125 4.8359375 12.1953125 2.375 12.125 C1.55773437 12.10695312 0.74046875 12.08890625 -0.1015625 12.0703125 C-0.72804688 12.04710937 -1.35453125 12.02390625 -2 12 C-1.85904936 10.3745692 -1.71207913 8.74965949 -1.5625 7.125 C-1.48128906 6.22007812 -1.40007813 5.31515625 -1.31640625 4.3828125 C-1 2 -1 2 0 0 Z M2 2 C2.33 2.99 2.66 3.98 3 5 C3.99 4.67 4.98 4.34 6 4 C4.68 3.34 3.36 2.68 2 2 Z M1 7 C1 7.99 1 8.98 1 10 C2.65 9.67 4.3 9.34 6 9 C5.67 8.34 5.34 7.68 5 7 C3.68 7 2.36 7 1 7 Z " fill="#195579" transform="translate(65,130)"/>
<path d="M0 0 C-1 3 -1 3 -4 5 C-2.35 4.67 -0.7 4.34 1 4 C1 4.99 1 5.98 1 7 C-0.65 7.33 -2.3 7.66 -4 8 C-4 8.99 -4 9.98 -4 11 C-3.4225 10.67 -2.845 10.34 -2.25 10 C0 9 0 9 4 9 C4 9.66 4 10.32 4 11 C-2.625 14 -2.625 14 -6 14 C-6.99 10.04 -7.98 6.08 -9 2 C-3.375 0 -3.375 0 0 0 Z " fill="#195579" transform="translate(97,126)"/>
<path d="M0 0 C1.65 0 3.3 0 5 0 C4.67 1.65 4.34 3.3 4 5 C4.99 5.33 5.98 5.66 7 6 C7.1875 8.375 7.1875 8.375 7 11 C4 13 4 13 0 13 C-0.39222105 11.58800422 -0.76311059 10.17007236 -1.125 8.75 C-1.33382812 7.96109375 -1.54265625 7.1721875 -1.7578125 6.359375 C-2.04314411 3.5796929 -1.44977894 2.34112451 0 0 Z " fill="#5E879F" transform="translate(129,45)"/>
<path d="M0 0 C0.33 0.99 0.66 1.98 1 3 C-0.98 3 -2.96 3 -5 3 C-5 4.65 -5 6.3 -5 8 C-3.68 8 -2.36 8 -1 8 C-0.67 7.34 -0.34 6.68 0 6 C0.66 6 1.32 6 2 6 C1.67 7.65 1.34 9.3 1 11 C-5.37426409 12.32296047 -5.37426409 12.32296047 -7.9375 11 C-9.60216895 7.8665055 -9.43422916 5.47383326 -9 2 C-6.14472183 -1.38403338 -4.078958 -1.24634828 0 0 Z " fill="#195579" transform="translate(87,130)"/>
<path d="M0 0 C0.33 0 0.66 0 1 0 C1 2.64 1 5.28 1 8 C2.98 8 4.96 8 7 8 C7.103125 9.258125 7.20625 10.51625 7.3125 11.8125 C7.69609156 15.13957417 7.69609156 15.13957417 9.5625 17.875 C10.036875 18.24625 10.51125 18.6175 11 19 C11 19.66 11 20.32 11 21 C5.97101246 19.56314642 4.04322498 17.05763331 1 13 C-0.32229189 10.35541621 -0.09677194 8.32238699 -0.0625 5.375 C-0.05347656 4.37210937 -0.04445312 3.36921875 -0.03515625 2.3359375 C-0.02355469 1.56507812 -0.01195312 0.79421875 0 0 Z " fill="#55819C" transform="translate(61,84)"/>
<path d="M0 0 C1.9375 0.3125 1.9375 0.3125 4 1 C4.33 1.99 4.66 2.98 5 4 C5.99 4 6.98 4 8 4 C8.33 5.32 8.66 6.64 9 8 C9.66 8 10.32 8 11 8 C11 8.66 11 9.32 11 10 C8.69 10.66 6.38 11.32 4 12 C4 11.34 4 10.68 4 10 C3.34 10 2.68 10 2 10 C-0.17364926 7.18230651 -1.08677021 5.7809319 -0.6875 2.1875 C-0.460625 1.465625 -0.23375 0.74375 0 0 Z " fill="#7095AB" transform="translate(123,32)"/>
<path d="M0 0 C5.28458761 0.41447746 8.22237449 1.22237449 12 5 C14.86815756 8.94891259 15.40846743 11.77222312 15.375 16.625 C15.38273437 17.75164062 15.39046875 18.87828125 15.3984375 20.0390625 C15 23 15 23 13.4765625 24.8984375 C12.98929688 25.26195313 12.50203125 25.62546875 12 26 C12 25.34 12 24.68 12 24 C11.34 23.67 10.68 23.34 10 23 C10.99 23 11.98 23 13 23 C13.33 19.7 13.66 16.4 14 13 C13.01 12.67 12.02 12.34 11 12 C11 11.01 11 10.02 11 9 C10.67 8.34 10.34 7.68 10 7 C9.34 8.32 8.68 9.64 8 11 C7.67 8.36 7.34 5.72 7 3 C4.69 2.34 2.38 1.68 0 1 C0 0.67 0 0.34 0 0 Z " fill="#2B6384" transform="translate(80,72)"/>
<path d="M0 0 C0.66 0 1.32 0 2 0 C1.8543086 7.72164416 -1.194334 13.03495602 -6 19 C-8.8398973 21.60136393 -11.79398913 23.86992928 -15 26 C-15.66 25.67 -16.32 25.34 -17 25 C-14.80654914 22.72218564 -12.70331359 20.78715975 -10.125 18.9375 C-4.57653083 14.40554427 -1.07534959 6.98344675 0 0 Z " fill="#1E5777" transform="translate(111,95)"/>
<path d="M0 0 C1.98 0.66 3.96 1.32 6 2 C5.875 3.75 5.875 3.75 5 6 C1.9375 8.25 1.9375 8.25 -1 10 C-1.99 9.01 -2.98 8.02 -4 7 C-2.79618552 4.50638429 -1.54571278 2.31856917 0 0 Z " fill="#EEF3F6" transform="translate(85,94)"/>
<path d="M0 0 C0.61359375 0.28746094 1.2271875 0.57492188 1.859375 0.87109375 C2.189375 1.86109375 2.519375 2.85109375 2.859375 3.87109375 C0.921875 6.55859375 0.921875 6.55859375 -1.140625 8.87109375 C-5.890625 8.12109375 -5.890625 8.12109375 -8.140625 5.87109375 C-7.24034912 4.83577649 -6.31969465 3.8181521 -5.390625 2.80859375 C-4.62492187 1.95587891 -4.62492187 1.95587891 -3.84375 1.0859375 C-2.140625 -0.12890625 -2.140625 -0.12890625 0 0 Z " fill="#EFF4F6" transform="translate(72.140625,74.12890625)"/>
<path d="M0 0 C2.64 0 5.28 0 8 0 C7.01 0.495 7.01 0.495 6 1 C6 1.66 6 2.32 6 3 C6.99 2.67 7.98 2.34 9 2 C8.67 2.99 8.34 3.98 8 5 C6.02 5.33 4.04 5.66 2 6 C1.01 9.465 1.01 9.465 0 13 C-0.33 13 -0.66 13 -1 13 C-1.0272415 11.58344207 -1.04650467 10.16672955 -1.0625 8.75 C-1.07410156 7.96109375 -1.08570313 7.1721875 -1.09765625 6.359375 C-1.00385306 4.09308998 -0.63241063 2.1711105 0 0 Z " fill="#46748E" transform="translate(132,62)"/>
<path d="M0 0 C-0.0825 0.9075 -0.165 1.815 -0.25 2.75 C-0.31024799 6.10041408 -0.31024799 6.10041408 2 8.375 C2.66 8.91125 3.32 9.4475 4 10 C3.67 10.99 3.34 11.98 3 13 C2.34 13 1.68 13 1 13 C-0.7143618 11.04072937 -2.38405168 9.04119788 -4 7 C-4.99 7.33 -5.98 7.66 -7 8 C-7.33 7.01 -7.66 6.02 -8 5 C-2.25 0 -2.25 0 0 0 Z " fill="#195579" transform="translate(114,114)"/>
<path d="M0 0 C1.32 0 2.64 0 4 0 C3.67 0.99 3.34 1.98 3 3 C3.66 3.33 4.32 3.66 5 4 C5 5.32 5 6.64 5 8 C2.69 8.66 0.38 9.32 -2 10 C-2 9.34 -2 8.68 -2 8 C-2.66 7.67 -3.32 7.34 -4 7 C-3.67 6.67 -3.34 6.34 -3 6 C-3.99 5.67 -4.98 5.34 -6 5 C-5.67 4.01 -5.34 3.02 -5 2 C-1.125 3.875 -1.125 3.875 0 5 C0 3.35 0 1.7 0 0 Z " fill="#6D92A7" transform="translate(52,9)"/>
<path d="M0 0 C1.65 0.33 3.3 0.66 5 1 C5.33 2.32 5.66 3.64 6 5 C5.34 5 4.68 5 4 5 C4.33 6.32 4.66 7.64 5 9 C3.02 9 1.04 9 -1 9 C-1.125 2.25 -1.125 2.25 0 0 Z " fill="#E9EEEF" transform="translate(63,83)"/>
<path d="M0 0 C0.66 0 1.32 0 2 0 C2 0.66 2 1.32 2 2 C2.99 2.33 3.98 2.66 5 3 C4.42655063 5.86724686 4.1385485 6.8614515 2 9 C0.35 8.01 -1.3 7.02 -3 6 C-1.125 1.125 -1.125 1.125 0 0 Z " fill="#EBF0F4" transform="translate(75,79)"/>
<path d="M0 0 C0.33 0.99 0.66 1.98 1 3 C1.99 3 2.98 3 4 3 C4 2.34 4 1.68 4 1 C4.99 1.33 5.98 1.66 7 2 C6.34 3.98 5.68 5.96 5 8 C1.625 8.125 1.625 8.125 -2 8 C-2.66 7.34 -3.32 6.68 -4 6 C-2.68 5.67 -1.36 5.34 0 5 C-0.2784375 4.0409375 -0.2784375 4.0409375 -0.5625 3.0625 C-0.706875 2.381875 -0.85125 1.70125 -1 1 C-0.67 0.67 -0.34 0.34 0 0 Z " fill="#6A90A5" transform="translate(11,54)"/>
<path d="M0 0 C2.475 0.99 2.475 0.99 5 2 C5 2.66 5 3.32 5 4 C6.65 4.33 8.3 4.66 10 5 C9.34 5.66 8.68 6.32 8 7 C8 7.99 8 8.98 8 10 C6.68 9.67 5.36 9.34 4 9 C4.33 8.34 4.66 7.68 5 7 C3.68 7 2.36 7 1 7 C1.66 5.35 2.32 3.7 3 2 C2.54625 2.495 2.0925 2.99 1.625 3.5 C0 5 0 5 -2 5 C-1.34 3.35 -0.68 1.7 0 0 Z " fill="#B9CBD6" transform="translate(104,14)"/>
<path d="M0 0 C0.33 0.99 0.66 1.98 1 3 C2.98 3 4.96 3 7 3 C6.34 3.66 5.68 4.32 5 5 C5.33 5.66 5.66 6.32 6 7 C4.35 6.67 2.7 6.34 1 6 C1 6.66 1 7.32 1 8 C2.32 8.66 3.64 9.32 5 10 C2.03 9.505 2.03 9.505 -1 9 C-2.0326802 6.21176345 -2.04509293 5.1322726 -1.0625 2.25 C-0.711875 1.5075 -0.36125 0.765 0 0 Z " fill="#7C9CAE" transform="translate(129,88)"/>
<path d="M0 0 C1.32 0.33 2.64 0.66 4 1 C4 1.66 4 2.32 4 3 C5.32 3.33 6.64 3.66 8 4 C6.35 4 4.7 4 3 4 C3 4.66 3 5.32 3 6 C3.66 6 4.32 6 5 6 C4.67 6.66 4.34 7.32 4 8 C2.02 6.68 0.04 5.36 -2 4 C-1.34 2.68 -0.68 1.36 0 0 Z " fill="#C2D2DB" transform="translate(17,34)"/>
<path d="M0 0 C0.99 0 1.98 0 3 0 C2.34 3.63 1.68 7.26 1 11 C0.01 11.33 -0.98 11.66 -2 12 C-1.85831863 10.56208484 -1.71148957 9.1246763 -1.5625 7.6875 C-1.48128906 6.88699219 -1.40007813 6.08648437 -1.31640625 5.26171875 C-1 3 -1 3 0 0 Z " fill="#195579" transform="translate(61,129)"/>
<path d="M0 0 C3 1 3 1 4 3 C4.66 3 5.32 3 6 3 C6 3.66 6 4.32 6 5 C3.69 5.66 1.38 6.32 -1 7 C-1 6.34 -1 5.68 -1 5 C-1.66 5 -2.32 5 -3 5 C-3 4.01 -3 3.02 -3 2 C-2.01 1.34 -1.02 0.68 0 0 Z " fill="#9DB7C6" transform="translate(128,37)"/>
<path d="M0 0 C3.465 1.98 3.465 1.98 7 4 C6.67 4.66 6.34 5.32 6 6 C5.34 6 4.68 6 4 6 C3.67 6.99 3.34 7.98 3 9 C2.34 9 1.68 9 1 9 C0.67 6.03 0.34 3.06 0 0 Z " fill="#C3D2DC" transform="translate(35,15)"/>
<path d="M0 0 C-0.875 4.75 -0.875 4.75 -2 7 C-4.475 6.01 -4.475 6.01 -7 5 C-6 2 -6 2 -4.0625 0.8125 C-2 0 -2 0 0 0 Z " fill="#E8EFF2" transform="translate(84,74)"/>
<path d="M0 0 C4.875 2.625 4.875 2.625 6 6 C4.68 6.33 3.36 6.66 2 7 C0.68 5.35 -0.64 3.7 -2 2 C-1.34 1.34 -0.68 0.68 0 0 Z " fill="#F1F3F3" transform="translate(71,86)"/>
<path d="M0 0 C0.103125 0.598125 0.20625 1.19625 0.3125 1.8125 C1.08876455 4.28243264 2.07088921 5.32251235 4 7 C3.21625 6.814375 2.4325 6.62875 1.625 6.4375 C-0.97089775 5.74037734 -0.97089775 5.74037734 -3 7 C-3.33 6.01 -3.66 5.02 -4 4 C-5.49985609 2.33289654 -5.49985609 2.33289654 -7 1 C-5.5459375 1.0309375 -5.5459375 1.0309375 -4.0625 1.0625 C-1.12534105 1.35618499 -1.12534105 1.35618499 0 0 Z " fill="#396D8C" transform="translate(72,81)"/>
<path d="M0 0 C0.99 0.33 1.98 0.66 3 1 C3 2.98 3 4.96 3 7 C1.35 7 -0.3 7 -2 7 C-1.125 2.25 -1.125 2.25 0 0 Z " fill="#EFF3F6" transform="translate(85,76)"/>
<path d="M0 0 C2.31 0 4.62 0 7 0 C6.01 0.495 6.01 0.495 5 1 C5 1.66 5 2.32 5 3 C5.99 2.67 6.98 2.34 8 2 C7.67 2.99 7.34 3.98 7 5 C5.68 5 4.36 5 3 5 C3 4.01 3 3.02 3 2 C2.34 2 1.68 2 1 2 C0.67 2.99 0.34 3.98 0 5 C0 3.35 0 1.7 0 0 Z " fill="#D1DDE4" transform="translate(133,62)"/>
<path d="M0 0 C1.65 0 3.3 0 5 0 C4.67 1.65 4.34 3.3 4 5 C2.35 4.67 0.7 4.34 -1 4 C-0.67 2.68 -0.34 1.36 0 0 Z " fill="#A2BBC9" transform="translate(129,45)"/>
<path d="M0 0 C2.97 0 5.94 0 9 0 C8.67 0.99 8.34 1.98 8 3 C4.9375 4.1875 4.9375 4.1875 2 5 C2 4.01 2 3.02 2 2 C1.34 1.34 0.68 0.68 0 0 Z " fill="#A6BECC" transform="translate(73,71)"/>
<path d="M0 0 C2.0625 0.4375 2.0625 0.4375 4 1 C4 2.32 4 3.64 4 5 C2.68 5.33 1.36 5.66 0 6 C-0.38218767 4.34385343 -0.71395102 2.67542976 -1 1 C-0.67 0.67 -0.34 0.34 0 0 Z " fill="#B5C8D4" transform="translate(119,27)"/>
<path d="M0 0 C0.66 0.33 1.32 0.66 2 1 C1.67 2.65 1.34 4.3 1 6 C-0.65 5.67 -2.3 5.34 -4 5 C-3.67 3.68 -3.34 2.36 -3 1 C-2.34 1 -1.68 1 -1 1 C-1 1.99 -1 2.98 -1 4 C-0.34 4 0.32 4 1 4 C0.67 2.68 0.34 1.36 0 0 Z " fill="#C3D2DC" transform="translate(14,83)"/>
<path d="M0 0 C1.65 0.33 3.3 0.66 5 1 C2.22719294 4.08089673 -0.06326356 5.68775452 -4 7 C-2.68 4.69 -1.36 2.38 0 0 Z " fill="#E5E6DE" transform="translate(81,84)"/>
<path d="M0 0 C1.98 0.495 1.98 0.495 4 1 C4 2.32 4 3.64 4 5 C2.68 5.33 1.36 5.66 0 6 C-1.125 2.25 -1.125 2.25 0 0 Z " fill="#195579" transform="translate(125,106)"/>
<path d="M0 0 C1.65 0.33 3.3 0.66 5 1 C5 2.32 5 3.64 5 5 C4.01 5 3.02 5 2 5 C2 4.01 2 3.02 2 2 C1.34 2 0.68 2 0 2 C-0.33 2.99 -0.66 3.98 -1 5 C-0.67 3.35 -0.34 1.7 0 0 Z " fill="#C4D3DC" transform="translate(133,80)"/>
<path d="M0 0 C1.32 0 2.64 0 4 0 C4 1.32 4 2.64 4 4 C3.34 4 2.68 4 2 4 C1.67 4.66 1.34 5.32 1 6 C-0.0625 4.125 -0.0625 4.125 -1 2 C-0.67 1.34 -0.34 0.68 0 0 Z " fill="#195579" transform="translate(20,104)"/>
<path d="M0 0 C1.32 0 2.64 0 4 0 C4 0.99 4 1.98 4 3 C3.01 3 2.02 3 1 3 C1 3.66 1 4.32 1 5 C1.99 5.33 2.98 5.66 4 6 C2.35 5.67 0.7 5.34 -1 5 C-0.67 3.35 -0.34 1.7 0 0 Z " fill="#C8D6DF" transform="translate(80,6)"/>
<path d="M0 0 C1.32 1.32 2.64 2.64 4 4 C2.75 5.5625 2.75 5.5625 1 7 C-1.1875 6.6875 -1.1875 6.6875 -3 6 C-2.01 5.67 -1.02 5.34 0 5 C0 3.35 0 1.7 0 0 Z " fill="#C5CABF" transform="translate(89,78)"/>
<path d="M0 0 C0.66 0 1.32 0 2 0 C2 0.66 2 1.32 2 2 C2.66 2 3.32 2 4 2 C4 3.32 4 4.64 4 6 C3.01 6.33 2.02 6.66 1 7 C1 6.34 1 5.68 1 5 C0.34 4.67 -0.32 4.34 -1 4 C-0.67 2.68 -0.34 1.36 0 0 Z " fill="#B3C7D3" transform="translate(42,13)"/>
<path d="M0 0 C0.99 0.33 1.98 0.66 3 1 C3.33 2.65 3.66 4.3 4 6 C2.68 6 1.36 6 0 6 C0 4.02 0 2.04 0 0 Z " fill="#B2C6D2" transform="translate(58,7)"/>
<path d="M0 0 C1.32 0 2.64 0 4 0 C4.33 0.99 4.66 1.98 5 3 C7.01508358 3.73323796 7.01508358 3.73323796 9 4 C8.01 4 7.02 4 6 4 C5.67 4.66 5.34 5.32 5 6 C3.35 4.02 1.7 2.04 0 0 Z " fill="#D7E1E7" transform="translate(25,23)"/>
<path d="M0 0 C0.99 0.66 1.98 1.32 3 2 C3 2.66 3 3.32 3 4 C0.69 4 -1.62 4 -4 4 C-2.68 2.68 -1.36 1.36 0 0 Z " fill="#CBD9E1" transform="translate(79,101)"/>
<path d="M0 0 C0.33 0.66 0.66 1.32 1 2 C0.67 2.66 0.34 3.32 0 4 C1.32 4.66 2.64 5.32 4 6 C3.01 6.495 3.01 6.495 2 7 C-0.625 5.5625 -0.625 5.5625 -3 4 C-2.01 2.68 -1.02 1.36 0 0 Z " fill="#477794" transform="translate(87,89)"/>
<path d="M0 0 C1.2065625 0.0309375 1.2065625 0.0309375 2.4375 0.0625 C1.4475 0.5575 1.4475 0.5575 0.4375 1.0625 C0.4375 2.3825 0.4375 3.7025 0.4375 5.0625 C-0.5525 4.7325 -1.5425 4.4025 -2.5625 4.0625 C-2.8925 3.0725 -3.2225 2.0825 -3.5625 1.0625 C-2.5625 0.0625 -2.5625 0.0625 0 0 Z " fill="#1E587B" transform="translate(12.5625,75.9375)"/>
<path d="M0 0 C0.33 0.99 0.66 1.98 1 3 C1.99 3 2.98 3 4 3 C4.33 2.34 4.66 1.68 5 1 C4.67 2.32 4.34 3.64 4 5 C2.35 4.67 0.7 4.34 -1 4 C-0.67 2.68 -0.34 1.36 0 0 Z " fill="#C1D1DB" transform="translate(11,54)"/>
<path d="M0 0 C1.32 0 2.64 0 4 0 C3.67 0.99 3.34 1.98 3 3 C3.66 3.66 4.32 4.32 5 5 C3.35 5 1.7 5 0 5 C0 3.35 0 1.7 0 0 Z " fill="#D4DFE6" transform="translate(52,9)"/>
<path d="M0 0 C0.99 0.33 1.98 0.66 3 1 C2.67 1.33 2.34 1.66 2 2 C2.66 2.33 3.32 2.66 4 3 C3.67 3.99 3.34 4.98 3 6 C2.01 5.67 1.02 5.34 0 5 C-0.75 3 -0.75 3 -1 1 C-0.67 0.67 -0.34 0.34 0 0 Z " fill="#C7D5DE" transform="translate(64,6)"/>
<path d="M0 0 C0.99 0.33 1.98 0.66 3 1 C3.33 1.99 3.66 2.98 4 4 C2.68 4.33 1.36 4.66 0 5 C-0.33 4.01 -0.66 3.02 -1 2 C-0.67 1.34 -0.34 0.68 0 0 Z " fill="#195579" transform="translate(121,112)"/>
<path d="M0 0 C0.99 0 1.98 0 3 0 C3.33 0.99 3.66 1.98 4 3 C2.02 3.99 2.02 3.99 0 5 C-0.5625 3.0625 -0.5625 3.0625 -1 1 C-0.67 0.67 -0.34 0.34 0 0 Z " fill="#195579" transform="translate(25,110)"/>
<path d="M0 0 C1.98 0.495 1.98 0.495 4 1 C4 1.66 4 2.32 4 3 C3.01 3.33 2.02 3.66 1 4 C0.34 3.67 -0.32 3.34 -1 3 C-0.67 2.01 -0.34 1.02 0 0 Z " fill="#195579" transform="translate(29,116)"/>
<path d="M0 0 C0.99 0.33 1.98 0.66 3 1 C2.67 2.32 2.34 3.64 2 5 C1.01 4.01 0.02 3.02 -1 2 C-0.67 1.34 -0.34 0.68 0 0 Z " fill="#195579" transform="translate(117,118)"/>
</svg>
